HIERARCHY
ROOT Hips
{
 OFFSET 0.000000 0.000000 0.000000
 CHANNELS 6 Xposition Yposition Zposition Yrotation Xrotation Zrotation
 JOINT Chest
 {
  OFFSET 0.000000 9.585900 0.002600
  CHANNELS 3 Yrotation Xrotation Zrotation
  JOINT Chest2
  {
   OFFSET 0.000000 9.601200 -0.005300
   CHANNELS 3 Yrotation Xrotation Zrotation
   JOINT Chest3
   {
    OFFSET 0.000000 9.561800 0.000000
    CHANNELS 3 Yrotation Xrotation Zrotation
    JOINT Chest4
    {
     OFFSET 0.000000 9.552100 0.000000
     CHANNELS 3 Yrotation Xrotation Zrotation
     JOINT Neck
     {
      OFFSET 0.000000 14.453000 0.000000
      CHANNELS 3 Yrotation Xrotation Zrotation
      JOINT Head
      {
       OFFSET 0.000000 8.936500 -0.011300
       CHANNELS 3 Yrotation Xrotation Zrotation
       End Site
       {
        OFFSET 0.000000 17.073600 -0.006000
       }
      }
     }
     JOINT RightCollar
     {
      OFFSET -2.921100 9.558500 0.000000
      CHANNELS 3 Yrotation Xrotation Zrotation
      JOINT RightShoulder
      {
       OFFSET -13.519700 0.000000 0.000000
       CHANNELS 3 Yrotation Xrotation Zrotation
       JOINT RightElbow
       {
        OFFSET 0.000000 -29.696600 0.000000
        CHANNELS 3 Yrotation Xrotation Zrotation
        JOINT RightWrist
        {
         OFFSET 0.000000 -24.004700 0.000000
         CHANNELS 3 Yrotation Xrotation Zrotation
         End Site
         {
          OFFSET 0.000000 -17.728500 0.000000
         }
        }
       }
      }
     }
     JOINT LeftCollar
     {
      OFFSET 2.921100 9.558500 0.000000
      CHANNELS 3 Yrotation Xrotation Zrotation
      JOINT LeftShoulder
      {
       OFFSET 13.519700 0.000000 0.000000
       CHANNELS 3 Yrotation Xrotation Zrotation
       JOINT LeftElbow
       {
        OFFSET 0.000000 -29.696600 0.000000
        CHANNELS 3 Yrotation Xrotation Zrotation
        JOINT LeftWrist
        {
         OFFSET 0.000000 -24.004700 0.000000
         CHANNELS 3 Yrotation Xrotation Zrotation
         End Site
         {
          OFFSET 0.000000 -17.728500 0.000000
         }
        }
       }
      }
     }
    }
   }
  }
 }
 JOINT RightHip
 {
  OFFSET -7.771700 -0.012900 -0.001300
  CHANNELS 3 Yrotation Xrotation Zrotation
  JOINT RightKnee
  {
   OFFSET 0.000000 -40.869800 0.001200
   CHANNELS 3 Yrotation Xrotation Zrotation
   JOINT RightAnkle
   {
    OFFSET 0.000000 -39.717900 0.002100
    CHANNELS 3 Yrotation Xrotation Zrotation
    JOINT RightToe
    {
     OFFSET 0.000000 -4.965400 11.033500
     CHANNELS 3 Yrotation Xrotation Zrotation
     End Site
     {
      OFFSET 0.000000 -1.423100 5.872300
     }
    }
   }
  }
 }
 JOINT LeftHip
 {
  OFFSET 7.771700 -0.012900 -0.001300
  CHANNELS 3 Yrotation Xrotation Zrotation
  JOINT LeftKnee
  {
   OFFSET 0.000000 -40.869800 0.001200
   CHANNELS 3 Yrotation Xrotation Zrotation
   JOINT LeftAnkle
   {
    OFFSET 0.000000 -39.717900 0.002100
    CHANNELS 3 Yrotation Xrotation Zrotation
    JOINT LeftToe
    {
     OFFSET 0.000000 -4.965400 11.033500
     CHANNELS 3 Yrotation Xrotation Zrotation
     End Site
     {
      OFFSET 0.000000 -1.423100 5.872300
     }
    }
   }
  }
 }
}
MOTION
Frames: 16
Frame Time: 0.008333
0.000000 85.388000 0.000000 0.000000 -5.767877 0.000000 0.000000 11.653817 0.000000 0.000000 -5.885947 0.000000 0.000000 -0.000000 0.000000 0.000000 -0.000000 0.000000 0.000000 12.528835 0.000000 0.000000 0.711642 0.000000 0.000000 -0.000000 0.000000 0.000000 0.000000 -90.000000 0.000000 -2.309062 0.000000 0.000000 2.309062 0.000000 0.000000 -0.000000 0.000000 0.000000 -0.000000 90.000000 0.000000 -2.309062 0.000000 0.000000 2.309062 0.000000 0.000000 8.520406 0.000000 0.000000 1.905762 0.000000 -0.000000 -4.658285 0.000000 0.000000 -0.000000 0.000000 0.000000 8.520406 0.000000 0.000000 1.905762 0.000000 -0.000000 -4.658285 0.000000 0.000000 -0.000000 0.000000
-19.150089 57.315443 72.939751 -176.258440 -44.796205 -1.506212 -1.109133 28.254422 3.985366 -0.302295 5.201330 0.559566 -0.472168 8.206443 0.884062 -0.986751 22.918601 2.366268 -0.066805 8.045535 -6.840733 3.258580 -20.598939 -13.434167 6.035579 1.585668 -1.826876 23.091260 -34.125216 -19.124029 13.817216 -54.434366 -2.174010 19.930217 7.480892 -22.269661 -12.067059 -2.152717 -7.404644 -9.328281 -33.864861 -0.750168 -72.870394 -47.022628 44.123492 -28.828223 5.201736 -6.458334 7.296817 -26.559864 -7.377689 -8.632466 64.030720 -10.348510 4.924720 13.865168 10.740041 -0.387151 -6.416874 0.614195 -5.221789 -31.828459 -6.065535 23.728326 54.479541 21.487473 -11.901569 40.489311 3.373888 0.517881 -19.523360 -5.648674
-19.147488 57.315157 72.938773 -176.279713 -44.778175 -1.513948 -1.100088 28.265465 4.009772 -0.303027 5.201962 0.561791 -0.475703 8.209301 0.889295 -0.982199 22.902705 2.360597 -0.047792 8.000964 -6.848870 3.324614 -20.698528 -13.495276 6.009096 1.628455 -1.805088 22.959440 -34.045479 -19.049413 13.799748 -54.755007 -2.216784 19.940205 7.444334 -22.193840 -12.068862 -2.118788 -7.399473 -9.273855 -33.828580 -0.796095 -72.886299 -47.162770 44.204141 -28.781906 5.152688 -6.407083 7.319058 -26.583426 -7.345308 -8.663606 64.030517 -10.384984 4.934620 13.862720 10.745442 -0.396831 -6.414884 0.626770 -5.227702 -31.848593 -6.046185 23.690964 54.488617 21.488232 -11.945163 40.492778 3.300321 0.540223 -19.486282 -5.640924
-19.146656 57.315368 72.937584 -176.306747 -44.760487 -1.505806 -1.095071 28.276777 4.022802 -0.304838 5.203138 0.563890 -0.480560 8.215543 0.891165 -0.976240 22.883353 2.355576 -0.020099 7.936665 -6.842536 3.394185 -20.774158 -13.572501 5.984390 1.672469 -1.788024 22.829371 -33.969809 -18.988211 13.795628 -55.069328 -2.246325 19.950558 7.409938 -22.124561 -12.078813 -2.084702 -7.393796 -9.231987 -33.797803 -0.824767 -72.902338 -47.293521 44.285726 -28.742435 5.115056 -6.358904 7.339760 -26.605542 -7.328613 -8.636007 64.031779 -10.375457 4.940042 13.858729 10.771991 -0.410489 -6.412155 0.621110 -5.238320 -31.877293 -6.059409 23.699539 54.494887 21.534960 -11.927099 40.508597 3.289497 0.511401 -19.428854 -5.658236
-19.136692 57.310351 72.941885 -176.319586 -44.692207 -1.557335 -1.072447 28.241771 4.094314 -0.336485 5.242999 0.573910 -0.447759 8.163844 0.874649 -1.012577 22.933636 2.388517 0.020549 7.854565 -6.894035 3.473483 -20.885191 -13.639756 5.991389 1.673619 -1.821512 22.703691 -33.902075 -18.939283 13.804092 -55.376160 -2.261688 19.958873 7.379073 -22.064647 -12.052958 -2.112607 -7.418736 -9.210597 -33.769063 -0.835976 -72.922470 -47.411800 44.369176 -28.703566 5.081650 -6.318278 7.340355 -26.686323 -7.256087 -8.662315 64.031626 -10.417650 4.981840 13.826214 10.824407 -0.453542 -6.385140 0.603250 -5.322217 -31.964506 -6.019051 23.782974 54.489868 21.643242 -11.784822 40.552526 3.392970 0.403106 -19.440776 -5.714772
-19.139248 57.309913 72.942475 -176.324410 -44.660237 -1.537439 -1.107249 28.247284 4.069903 -0.338116 5.246624 0.574447 -0.436144 8.145398 0.871485 -1.042837 22.970605 2.407664 0.056692 7.794095 -6.936531 3.555809 -21.009178 -13.703699 5.989690 1.691265 -1.842225 22.596602 -33.844961 -18.907291 13.812128 -55.670012 -2.261056 19.961308 7.351205 -22.009870 -12.054198 -2.074813 -7.429419 -9.191403 -33.797111 -0.827146 -72.967810 -47.482285 44.466673 -28.629155 5.036304 -6.287165 7.364480 -26.716110 -7.244802 -8.705526 64.023107 -10.497370 4.938367 13.842827 10.825225 -0.412999 -6.390967 0.628040 -5.345523 -32.011932 -6.053398 23.773262 54.486093 21.699744 -11.956064 40.570021 3.160905 0.490697 -19.412482 -5.669274
-19.135983 57.311693 72.941326 -176.329446 -44.641732 -1.548522 -1.124458 28.267755 4.079569 -0.325171 5.229968 0.572130 -0.454348 8.166601 0.879168 -1.034184 22.953780 2.400954 0.074452 7.750962 -6.942009 3.641935 -21.121277 -13.777561 5.958897 1.743690 -1.835339 22.511954 -33.796346 -18.892867 13.804164 -55.947566 -2.236907 19.953546 7.326157 -21.961997 -12.082280 -2.028299 -7.428094 -9.180514 -33.796908 -0.812180 -73.008851 -47.544862 44.565149 -28.564565 4.988666 -6.291326 7.362151 -26.737332 -7.221823 -8.714810 64.022383 -10.519911 4.956953 13.833467 10.845792 -0.427997 -6.385490 0.622431 -5.371448 -32.036325 -6.041752 23.758029 54.490518 21.719625 -12.020744 40.584765 3.071649 0.520866 -19.392399 -5.663163
-19.132311 57.314542 72.939734 -176.333470 -44.627925 -1.558838 -1.168564 28.338017 4.079311 -0.286435 5.170746 0.565886 -0.470785 8.193547 0.886116 -1.026395 22.932891 2.395422 0.093196 7.699852 -6.943160 3.730650 -21.230132 -13.857720 5.925461 1.797008 -1.830353 22.447394 -33.755292 -18.894902 13.771311 -56.208774 -2.187354 19.940712 7.303263 -21.911603 -12.085809 -2.027315 -7.434472 -9.199402 -33.747914 -0.802022 -73.031388 -47.636245 44.653705 -28.539525 4.965431 -6.331599 7.355523 -26.753556 -7.185053 -8.750399 64.019416 -10.578615 4.953798 13.826929 10.857015 -0.422219 -6.379156 0.624426 -5.398727 -32.056538 -6.027430 23.766503 54.495140 21.738895 -12.042637 40.600047 3.046183 0.532395 -19.383895 -5.674414
-19.117479 57.313066 72.942895 -176.351159 -44.571326 -1.621104 -1.144529 28.329304 4.156855 -0.311800 5.209554 0.570749 -0.469696 8.190783 0.886973 -1.022462 22.910177 2.389737 0.127096 7.640657 -6.972790 3.818576 -21.362329 -13.928501 5.912859 1.823711 -1.842842 22.402055 -33.719491 -18.912451 13.701671 -56.455142 -2.108301 19.929157 7.285609 -21.847376 -12.067139 -2.058363 -7.450229 -9.227050 -33.694518 -0.800226 -72.972281 -47.775555 44.724847 -28.593736 4.939339 -6.426396 7.321639 -26.822539 -7.073195 -8.803630 64.009784 -10.664574 4.986327 13.791016 10.889681 -0.451285 -6.344105 0.613532 -5.484054 -32.124620 -5.935547 23.817341 54.503605 21.784480 -11.955681 40.633932 3.138540 0.468692 -19.391878 -5.733521
-19.112713 57.313446 72.944953 -176.344579 -44.527904 -1.638873 -1.170463 28.335988 4.162337 -0.322599 5.227568 0.573521 -0.475791 8.200376 0.888629 -1.060081 22.953348 2.397958 0.192856 7.517718 -7.020367 3.910235 -21.487239 -14.006156 5.937953 1.791842 -1.882267 22.371177 -33.685680 -18.939988 13.582022 -56.685882 -1.989874 19.922199 7.272299 -21.769828 -12.087323 -2.070504 -7.477590 -9.202721 -33.725113 -0.789599 -72.918668 -47.875075 44.824361 -28.618713 4.888425 -6.542099 7.305014 -26.868023 -7.043847 -8.835255 64.003757 -10.712573 4.978744 13.781009 10.888206 -0.443291 -6.329688 0.619044 -5.612226 -32.192132 -5.911602 23.905070 54.504999 21.849312 -11.880315 40.663856 3.154461 0.400268 -19.382902 -5.753115
-19.107186 57.314867 72.946369 -176.348705 -44.490095 -1.653698 -1.186723 28.350341 4.171765 -0.325806 5.233267 0.574543 -0.489584 8.223372 0.891736 -1.076249 22.963904 2.399047 0.239348 7.423177 -7.052995 3.960173 -21.544317 -14.047150 5.945867 1.782360 -1.899416 22.350567 -33.653106 -18.972655 13.407350 -56.900624 -1.828409 19.923516 7.258222 -21.681863 -12.105897 -2.080079 -7.500776 -9.185388 -33.718461 -0.793726 -72.876190 -47.961627 44.942813 -28.623913 4.826122 -6.664134 7.298917 -26.908575 -7.021927 -8.852307 63.999133 -10.732406 4.989547 13.774993 10.893867 -0.454218 -6.321647 0.615945 -5.653376 -32.234532 -5.888722 23.869890 54.512237 21.845681 -11.914998 40.669682 3.064194 0.403981 -19.354555 -5.732937
-19.107792 57.316957 72.947532 -176.355230 -44.456612 -1.631888 -1.222634 28.369207 4.140484 -0.311340 5.210819 0.574147 -0.512479 8.260946 0.894824 -1.064188 22.935429 2.393875 0.255367 7.387191 -7.062785 4.067833 -21.696235 -14.135894 5.923913 1.816773 -1.888433 22.332714 -33.623663 -19.006389 13.185498 -57.103084 -1.627165 19.925501 7.247805 -21.592492 -12.146762 -2.047068 -7.515269 -9.158094 -33.693230 -0.813520 -72.825438 -48.063222 45.063730 -28.630363 4.759896 -6.787352 7.309016 -26.940164 -7.028325 -8.879270 63.990051 -10.770638 4.950573 13.799676 10.866237 -0.412106 -6.331971 0.638177 -5.672259 -32.275894 -5.910213 23.725202 54.536200 21.781885 -12.054409 40.663285 2.806984 0.505462 -19.306949 -5.678187
-19.103598 57.319427 72.948329 -176.370198 -44.424180 -1.636121 -1.237530 28.389504 4.142351 -0.295595 5.188232 0.576464 -0.537284 8.299500 0.894383 -1.049479 22.906589 2.390966 0.256493 7.357552 -7.066955 4.184929 -21.848618 -14.225546 5.905373 1.849494 -1.878114 22.312514 -33.599687 -19.038140 12.930104 -57.294347 -1.394518 19.919525 7.244897 -21.510407 -12.155216 -2.048539 -7.526608 -9.127275 -33.625449 -0.861849 -72.770102 -48.181940 45.183370 -28.638880 4.691486 -6.905600 7.311579 -26.975904 -6.995911 -8.922898 63.983201 -10.827915 4.945135 13.799844 10.863277 -0.402059 -6.326539 0.646782 -5.739991 -32.318250 -5.888836 23.729534 54.543909 21.795274 -12.046265 40.672290 2.769458 0.495495 -19.284505 -5.691613
-19.093287 57.320416 72.950468 -176.381284 -44.377378 -1.683496 -1.235302 28.394762 4.187239 -0.298532 5.198367 0.578733 -0.521025 8.274047 0.892443 -1.127437 23.006848 2.393097 0.328925 7.233936 -7.104073 4.270882 -21.964980 -14.286657 5.967525 1.775395 -1.912489 22.271900 -33.568743 -19.051265 12.648772 -57.473518 -1.137749 19.907134 7.243679 -21.438993 -12.136454 -2.084559 -7.553505 -9.049933 -33.618321 -0.899401 -72.719641 -48.315387 45.299678 -28.647291 4.622463 -7.006370 7.300634 -27.030976 -6.937357 -8.934513 63.980223 -10.839037 4.988323 13.777753 10.898394 -0.450264 -6.308974 0.626103 -5.897452 -32.383068 -5.820523 23.834366 54.541838 21.872114 -11.884087 40.714526 2.880863 0.392547 -19.298405 -5.761907
-19.091651 57.322864 72.951116 -176.399423 -44.344863 -1.679903 -1.255326 28.411374 4.177760 -0.297997 5.206174 0.578576 -0.540880 8.297348 0.892693 -1.146241 23.019103 2.387990 0.371174 7.152404 -7.124102 4.332216 -22.025403 -14.325966 6.026088 1.709412 -1.943904 22.187140 -33.519792 -19.026677 12.353242 -57.640625 -0.862512 19.888621 7.241271 -21.385878 -12.137149 -2.069926 -7.575941 -8.955694 -33.612301 -0.946421 -72.683515 -48.462169 45.412905 -28.656613 4.556106 -7.085858 7.322472 -27.066734 -6.934214 -8.932913 63.981723 -10.827800 4.977934 13.781203 10.894848 -0.448460 -6.309057 0.627540 -5.954273 -32.425468 -5.812518 23.844466 54.544956 21.893755 -11.862035 40.732098 2.852307 0.384502 -19.281459 -5.776374
-19.088847 57.325525 72.951204 -176.421558 -44.314516 -1.686014 -1.267304 28.430248 4.181630 -0.301538 5.212843 0.578907 -0.558412 8.320042 0.891659 -1.119910 22.978785 2.381191 0.388222 7.120072 -7.131619 4.413397 -22.167011 -14.383284 6.008876 1.745594 -1.926348 22.154395 -33.518526 -19.046802 12.063785 -57.797833 -0.578881 19.867624 7.245189 -21.354110 -12.160965 -2.014473 -7.586845 -8.855149 -33.588364 -1.007793 -72.663835 -48.622111 45.524197 -28.669578 4.500399 -7.144685 7.335289 -27.099506 -6.916236 -8.927069 63.972889 -10.816063 4.984122 13.798091 10.900564 -0.454164 -6.318047 0.623361 -5.985178 -32.458803 -5.789588 23.815437 54.551293 21.892165 -11.881316 40.744888 2.785231 0.410272 -19.276105 -5.775763
